<svg xmlns="http://www.w3.org/2000/svg" xmlns:xlink="http://www.w3.org/1999/xlink" width="1920" height="1080" viewBox="0 0 1920 1080">
  <defs>
    <radialGradient id="radial-gradient" cx="0.5" cy="0.5" r="0.5" gradientUnits="objectBoundingBox">
      <stop offset="0" stop-color="#013220"/>
      <stop offset="1" stop-color="#fff"/>
    </radialGradient>
  </defs>
  <g id="Group_48" data-name="Group 48" transform="translate(-5086 4757)">
    <g id="Rectangle_23" data-name="Rectangle 23" transform="translate(5086 -4757)" fill="#fff" stroke="#707070" stroke-width="1">
      <rect width="1920" height="1080" stroke="none"/>
      <rect x="0.5" y="0.5" width="1919" height="1079" fill="none"/>
    </g>
    <circle id="Ellipse_33" data-name="Ellipse 33" cx="530.5" cy="530.5" r="530.5" transform="translate(5945 -4738)" fill="url(#radial-gradient)"/>
    <g id="Group_2" data-name="Group 2" transform="translate(5755.872 -4624.817)" opacity="0.5">
      <path id="Path_15" data-name="Path 15" d="M41.614,0H211.466s-2.436,7.822-11.689,36.557-9.254,46.671-9.254,46.671H41.614A41.614,41.614,0,1,1,41.614,0Z" transform="translate(59.076 190.65)" fill="#fff"/>
      <path id="Path_20" data-name="Path 20" d="M41.614,0H211.466s-14.243,20.144-18.442,41.614-7.306,43.606-7.306,43.606l-144.1-1.992A41.614,41.614,0,1,1,41.614,0Z" transform="translate(1201.731 552.596) rotate(180)" fill="#fff"/>
      <path id="Path_16" data-name="Path 16" d="M41.614.675l141.881-1.4s-1.211,18.127-1.249,37.384,0,47.247,0,47.247H41.614a41.616,41.616,0,1,1,0-83.232Z" transform="translate(59.076 330.032)" fill="#fff"/>
      <path id="Path_18" data-name="Path 18" d="M41.614,1.4,183.495,0s.038,23.761,0,43.017-1.249,41.614-1.249,41.614H41.614a41.614,41.614,0,1,1,0-83.228Z" transform="translate(1201.731 414.64) rotate(180)" fill="#fff"/>
      <path id="Path_17" data-name="Path 17" d="M41.614,0,182.733,2.31s-.487,1.12,3.409,36.041S198.8,81.21,198.8,81.21L41.614,83.228A41.614,41.614,0,1,1,41.614,0Z" transform="translate(59.076 469.367)" fill="#fff"/>
      <path id="Path_19" data-name="Path 19" d="M41.614,0,182.733,2.31s.742,24.953,7.162,46.353a89.052,89.052,0,0,0,19.644,34.565H41.614A41.614,41.614,0,1,1,41.614,0Z" transform="translate(1201.731 273.878) rotate(180)" fill="#fff"/>
      <g id="Path_10" data-name="Path 10" transform="translate(270.542 0)">
        <path id="Path_49" data-name="Path 49" d="M355.592,0c64.523,0,116.369,35.532,168.93,67.262,38.134,23.02,84.9,40.467,114.322,72.424,26.521,28.8,60.237,64.888,71.836,106.692,10.7,38.564,7.94,82.215,7.94,125.051,0,40.432,3.521,78.851-7.94,115.459-12.448,39.764-23.666,81.123-49.373,113.926-34.761,44.354-83.255,63.917-136.785,88.609-52.968,24.434-111.063,53.822-168.93,53.822-55.3,0-108.219-30.139-155.043-53.823-52.564-26.586-120.373-55.761-156.1-101.268C17.293,553.562,4.516,510.632.5,463.38-1.96,434.37.5,374.07.5,342.22c0-35.507.49-75.577,9.387-106.692C21.482,195,42.109,157.758,67.009,126.668,95.028,91.682,135.664,76.088,177.5,56.5,232.7,30.66,288.031,0,355.592,0Z" transform="translate(0.592)" fill="none"/>
        <path id="Path_50" data-name="Path 50" d="M355.592,49.09c-48.646,0-91.96,20.708-137.818,42.632-6.5,3.108-12.982,6.206-19.462,9.239l-15.388,7.1c-32.317,14.809-60.227,27.6-77.6,49.288-22.4,27.974-39.084,59.675-48.237,91.675-7.5,26.213-7.5,66.521-7.5,93.193,0,10.057-.236,22.882-.494,36.685-.523,27.967-1.173,62.773.318,80.32C52.99,501.3,64,533.554,83.064,557.844c24.083,30.678,73.729,55.169,117.531,76.777,7.57,3.734,14.978,7.39,22.11,11l13.9,7.093c39.747,20.376,80.848,41.445,118.988,41.445,42.34,0,89.6-21.987,135.311-43.251l13.056-6.057,13.464-6.172c45.119-20.614,80.758-36.9,105.246-68.143,17.771-22.675,27.459-54.021,37.717-87.207l3.446-11.1c6.891-22.009,6.461-47.44,5.964-76.887-.133-7.892-.265-15.86-.265-23.906,0-7.473.081-14.97.163-22.462.361-33,.7-64.171-6.316-89.464-8.229-29.661-36.521-60.375-59.254-85.054l-1.39-1.51c-14.838-16.113-39.252-28.914-65.1-42.467-12.679-6.648-25.79-13.521-38.482-21.184L484.876,100.6C441.51,74.112,400.55,49.09,355.592,49.09m0-49.09c64.52,0,116.368,35.532,168.93,67.263,38.134,23.021,84.9,40.468,114.322,72.424,26.522,28.8,60.237,64.888,71.836,106.692,10.7,38.564,7.941,82.215,7.941,125.051,0,40.433,3.52,78.851-7.941,115.46-12.448,39.764-23.666,81.123-49.373,113.926-34.761,44.355-83.255,63.916-136.785,88.608-52.968,24.435-111.063,53.823-168.93,53.823-55.3,0-108.219-30.139-155.043-53.823-52.563-26.586-120.373-55.76-156.1-101.267C17.293,553.562,4.516,510.632.5,463.381c-2.464-29.01,0-89.312,0-121.159,0-35.507.49-75.577,9.39-106.692C21.485,195,42.111,157.757,67.011,126.665,95.031,91.679,135.667,76.086,177.5,56.5,232.7,30.658,288.031,0,355.592,0Z" transform="translate(0.592)" fill="#fff"/>
      </g>
      <g id="Group_1" data-name="Group 1" transform="translate(351.494 97.883)" style="mix-blend-mode: lighten;isolation: isolate">
        <g id="Group_3" data-name="Group 3" transform="translate(70.853 0)">
          <circle id="Ellipse_1" data-name="Ellipse 1" cx="211.469" cy="211.469" r="211.469" transform="translate(0 60.796)" fill="#fff"/>
          <text id="E" transform="translate(144.303 398.227) rotate(-15.009)" font-size="337" font-family="SegoeUI-Bold, Segoe UI" font-weight="700"><tspan x="0" y="0">E</tspan></text>
          <rect id="Rectangle_1" data-name="Rectangle 1" width="33.588" height="53.707" transform="translate(256.77 364.819) rotate(-15.009)"/>
          <rect id="Rectangle_4" data-name="Rectangle 4" width="33.588" height="53.707" transform="translate(186.149 112.477) rotate(-15.009)"/>
          <rect id="Rectangle_2" data-name="Rectangle 2" width="33.588" height="53.707" transform="translate(197.345 381.182) rotate(-15.009)"/>
          <rect id="Rectangle_3" data-name="Rectangle 3" width="33.588" height="53.707" transform="translate(125.863 130.563) rotate(-15.009)"/>
        </g>
        <path id="Path_2" data-name="Path 2" d="M15.187,2.241C18.623,1,33.578-2.359,66.73-2.359s61,3.278,64.23,5.028,6.383,7.217,6.383,14.042S133.3,28.186,125.268,29.1s-25.386-4.83-58.537-4.83S16.218,31.549,9.174,29.542,0,22.678,0,15.853,11.751,3.483,15.187,2.241Z" transform="translate(211.715 7.751)" fill="#fff"/>
        <path id="Path_9" data-name="Path 9" d="M15.187,4.6C18.623,3.359,33.579,0,66.73,0s61,3.278,64.23,5.028,6.383,7.217,6.383,14.042S133.3,30.545,125.268,31.46,99.882,26.63,66.73,26.63,16.218,33.908,9.174,31.9,0,25.037,0,18.212,11.751,5.842,15.187,4.6Z" transform="translate(359.296 541.333) rotate(178)" fill="#fff"/>
        <path id="Path_5" data-name="Path 5" d="M15.187,4.6C18.623,3.359,33.579,0,66.73,0s61,3.278,64.23,5.028,6.383,7.217,6.383,14.042S133.3,30.545,125.268,31.46,99.882,26.63,66.73,26.63,16.218,33.908,9.174,31.9,0,25.037,0,18.212,11.751,5.842,15.187,4.6Z" transform="matrix(0.035, 0.999, -0.999, 0.035, 554.965, 195.668)" fill="#fff"/>
        <path id="Path_7" data-name="Path 7" d="M15.187,4.6C18.623,3.359,33.579,0,66.73,0s61,3.278,64.23,5.028,6.383,7.217,6.383,14.042S133.3,30.545,125.268,31.46,99.882,26.63,66.73,26.63,16.218,33.908,9.174,31.9,0,25.037,0,18.212,11.751,5.842,15.187,4.6Z" transform="translate(9.614 363.153) rotate(-94.012)" fill="#fff"/>
        <path id="Path_3" data-name="Path 3" d="M15.187,4.6C18.623,3.359,33.579,0,66.73,0s61,3.278,64.23,5.028,6.383,7.217,6.383,14.042S133.3,30.545,125.268,31.46,99.882,26.63,66.73,26.63,16.218,33.908,9.174,31.9,0,25.037,0,18.212,11.751,5.842,15.187,4.6Z" transform="translate(422.025 37.643) rotate(45)" fill="#fff"/>
        <path id="Path_8" data-name="Path 8" d="M15.187,4.6C18.623,3.359,33.579,0,66.73,0s61,3.278,64.23,5.028,6.383,7.217,6.383,14.042S133.3,30.545,125.268,31.46,99.882,26.63,66.73,26.63,16.218,33.908,9.174,31.9,0,25.037,0,18.212,11.751,5.842,15.187,4.6Z" transform="matrix(-0.731, -0.682, 0.682, -0.731, 147.989, 516.441)" fill="#fff"/>
        <path id="Path_4" data-name="Path 4" d="M15.187,4.6C18.623,3.359,33.579,0,66.73,0s61,3.278,64.23,5.028,6.383,7.217,6.383,14.042S133.3,30.545,125.268,31.46,99.882,26.63,66.73,26.63,16.218,33.908,9.174,31.9,0,25.037,0,18.212,11.751,5.842,15.187,4.6Z" transform="translate(530.073 406.976) rotate(133)" fill="#fff"/>
        <path id="Path_6" data-name="Path 6" d="M15.187,4.6C18.623,3.359,33.579,0,66.73,0s61,3.278,64.23,5.028,6.383,7.217,6.383,14.042S133.3,30.545,125.268,31.46,99.882,26.63,66.73,26.63,16.218,33.908,9.174,31.9,0,25.037,0,18.212,11.751,5.842,15.187,4.6Z" transform="matrix(0.656, -0.755, 0.755, 0.656, 27.117, 151.105)" fill="#fff"/>
      </g>
      <path id="Path_13" data-name="Path 13" d="M6.678,141.268s-7.2-40.58-6.648-75.9A291.821,291.821,0,0,1,8.894,0L109.168,71.465Z" transform="translate(109.168 442.257) rotate(180)" fill="#fff"/>
      <path id="Path_14" data-name="Path 14" d="M574.846,443.225s-7.2-40.58-6.648-75.9a291.783,291.783,0,0,1,8.863-65.368l100.273,71.465Z" transform="translate(572.794 -0.968)" fill="#fff"/>
    </g>
  </g>
</svg>
