<svg xmlns="http://www.w3.org/2000/svg" xmlns:xlink="http://www.w3.org/1999/xlink" width="1920" height="1080" viewBox="0 0 1920 1080">
  <defs>
    <radialGradient id="radial-gradient" cx="0.5" cy="0.5" r="0.5" gradientUnits="objectBoundingBox">
      <stop offset="0" stop-color="#013220"/>
      <stop offset="0.176" stop-color="#134130"/>
      <stop offset="0.787" stop-color="#ccd6d2"/>
      <stop offset="1" stop-color="#fff"/>
    </radialGradient>
    <filter id="Path_76" x="545.541" y="13.192" width="1277.632" height="1021.561" filterUnits="userSpaceOnUse">
      <feOffset dy="3" input="SourceAlpha"/>
      <feGaussianBlur stdDeviation="3" result="blur"/>
      <feFlood flood-opacity="0" result="color"/>
      <feComposite operator="out" in="SourceGraphic" in2="blur"/>
      <feComposite operator="in" in="color"/>
      <feComposite operator="in" in2="SourceGraphic"/>
    </filter>
  </defs>
  <g id="Rectangle_23" data-name="Rectangle 23" fill="#fff" stroke="#707070" stroke-width="1">
    <rect width="1920" height="1080" stroke="none"/>
    <rect x="0.5" y="0.5" width="1919" height="1079" fill="none"/>
  </g>
  <g id="Group_45" data-name="Group 45" transform="translate(-3.437 1644.893)">
    <g id="Group_29" data-name="Group 29" transform="translate(445.738 -1863.743)">
      <g id="Group_26" data-name="Group 26">
        <g data-type="innerShadowGroup">
          <path id="Path_76-2" data-name="Path 76" d="M1019.627,232.1c507.5,0,635.845-14.874,635.845,417.6,0,376.685-188.271,538.705-188.271,538.705s-413.852,41.857-479.319,41.857c-507.5,0-610.042,144.931-610.042-287.543S512.126,232.1,1019.627,232.1Z" transform="translate(-274.601)" fill="url(#radial-gradient)"/>
          <g transform="matrix(1, 0, 0, 1, -442.3, 218.85)" filter="url(#Path_76)">
            <path id="Path_76-3" data-name="Path 76" d="M1019.627,232.1c507.5,0,635.845-14.874,635.845,417.6,0,376.685-188.271,538.705-188.271,538.705s-413.852,41.857-479.319,41.857c-507.5,0-610.042,144.931-610.042-287.543S512.126,232.1,1019.627,232.1Z" transform="translate(167.7 -218.85)" fill="#fff"/>
          </g>
        </g>
      </g>
    </g>
    <g id="Group_2" data-name="Group 2" transform="translate(406.871 -1616.359)" opacity="0.4">
      <path id="Path_15" data-name="Path 15" d="M50.239,0H255.294s-2.94,9.443-14.111,44.134-11.172,56.344-11.172,56.344H50.239A50.239,50.239,0,1,1,50.239,0Z" transform="translate(71.32 230.164)" fill="#fff"/>
      <path id="Path_20" data-name="Path 20" d="M50.239,0H255.294S238.1,24.319,233.03,50.239s-8.82,52.644-8.82,52.644l-173.971-2.4A50.239,50.239,0,1,1,50.239,0Z" transform="translate(1450.8 667.126) rotate(180)" fill="#fff"/>
      <path id="Path_16" data-name="Path 16" d="M50.239.965,221.526-.725s-1.462,21.884-1.508,45.132,0,57.04,0,57.04H50.239a50.241,50.241,0,1,1,0-100.482Z" transform="translate(71.32 398.284)" fill="#fff"/>
      <path id="Path_18" data-name="Path 18" d="M50.239,1.694,221.526,0s.046,28.685,0,51.933-1.508,50.239-1.508,50.239H50.239a50.239,50.239,0,1,1,0-100.478Z" transform="translate(1450.8 500.578) rotate(180)" fill="#fff"/>
      <path id="Path_17" data-name="Path 17" d="M50.239,0,220.605,2.789s-.588,1.352,4.115,43.511S240,98.042,240,98.042L50.239,100.478A50.239,50.239,0,1,1,50.239,0Z" transform="translate(71.32 566.648)" fill="#fff"/>
      <path id="Path_19" data-name="Path 19" d="M50.239,0,220.605,2.789s.9,30.125,8.646,55.961a107.509,107.509,0,0,0,23.715,41.729H50.239A50.239,50.239,0,1,1,50.239,0Z" transform="translate(1450.8 330.642) rotate(180)" fill="#fff"/>
      <g id="Path_10" data-name="Path 10" transform="translate(326.614 0)">
        <path id="Path_49" data-name="Path 49" d="M429.414,0C507.31,0,569.9,42.9,633.356,81.2c46.037,27.791,102.491,48.854,138.016,87.434,32.018,34.77,72.722,78.337,86.724,128.805,12.918,46.557,9.585,99.255,9.585,150.969,0,48.812,4.25,95.194-9.585,139.389-15.028,48.006-28.571,97.937-59.606,137.538-41.966,53.546-100.51,77.164-165.135,106.974-63.946,29.5-134.082,64.977-203.943,64.977-66.765,0-130.648-36.386-187.177-64.978-63.458-32.1-145.322-67.318-188.451-122.256C21,668.293,5.575,616.464.731,559.419c-2.975-35.022,0-107.82,0-146.271,0-42.866.592-91.241,11.333-128.805,13.994-48.927,38.9-93.888,68.956-131.422,33.827-42.237,82.884-61.063,133.386-84.705C281.053,37.015,347.851,0,429.414,0Z" transform="translate(0.592)" fill="none"/>
        <path id="Path_50" data-name="Path 50" d="M429.414,59.265c-58.728,0-111.02,25-166.381,51.468-7.849,3.752-15.673,7.492-23.5,11.154l-18.577,8.576c-39.015,17.878-72.71,33.319-93.679,59.5C100.233,223.737,80.1,262.009,69.046,300.641c-9.051,31.646-9.051,80.308-9.051,112.509,0,12.142-.285,27.625-.6,44.288-.631,33.763-1.416,75.783.383,96.967,4.314,50.79,17.6,89.733,40.621,119.057,29.075,37.036,89.01,66.6,141.89,92.689,9.139,4.508,18.082,8.922,26.693,13.276l16.778,8.563c47.985,24.6,97.6,50.035,143.65,50.035,51.115,0,108.175-26.544,163.356-52.215l15.762-7.312,16.254-7.451c54.471-24.886,97.5-44.542,127.059-82.266,21.454-27.374,33.15-65.217,45.534-105.281l4.16-13.405c8.319-26.57,7.8-57.273,7.2-92.822-.161-9.528-.32-19.148-.32-28.861,0-9.022.1-18.073.2-27.117.436-39.84.847-77.471-7.625-108.006-9.935-35.808-44.09-72.888-71.535-102.682l-1.678-1.823c-17.914-19.452-47.387-34.907-78.591-51.268-15.307-8.026-31.135-16.324-46.457-25.574l-17.235-10.487c-52.354-31.981-101.8-62.189-156.08-62.189m0-59.265C507.307,0,569.9,42.9,633.357,81.2,679.394,109,735.847,130.058,771.373,168.638c32.019,34.77,72.722,78.337,86.724,128.805,12.918,46.557,9.586,99.255,9.586,150.968,0,48.813,4.249,95.194-9.586,139.39-15.028,48.005-28.571,97.937-59.606,137.538-41.966,53.548-100.51,77.163-165.135,106.973-63.946,29.5-134.082,64.978-203.943,64.978-66.765,0-130.648-36.386-187.177-64.978C178.78,800.216,96.915,765,53.786,710.057,21,668.293,5.575,616.464.73,559.42-2.245,524.4.73,451.6.73,413.15c0-42.866.592-91.241,11.336-128.805,13.994-48.927,38.895-93.891,68.956-131.426,33.827-42.237,82.885-61.062,133.387-84.7C281.053,37.012,347.851,0,429.414,0Z" transform="translate(0.592)" fill="#fff"/>
      </g>
      <g id="Group_1" data-name="Group 1" transform="translate(424.344 118.998)" style="mix-blend-mode: lighten;isolation: isolate">
        <g id="Group_3" data-name="Group 3" transform="translate(85.538 0)">
          <circle id="Ellipse_1" data-name="Ellipse 1" cx="255.298" cy="255.298" r="255.298" transform="translate(0 72.569)" fill="#fff"/>
          <text id="E" transform="translate(173.061 475.644) rotate(-15.009)" font-size="403" font-family="SegoeUI-Bold, Segoe UI" font-weight="700"><tspan x="0" y="0">E</tspan></text>
          <rect id="Rectangle_1" data-name="Rectangle 1" width="40.55" height="64.839" transform="translate(309.988 439.603) rotate(-15.009)"/>
          <rect id="Rectangle_4" data-name="Rectangle 4" width="40.55" height="64.839" transform="translate(224.73 134.961) rotate(-15.009)"/>
          <rect id="Rectangle_2" data-name="Rectangle 2" width="40.55" height="64.839" transform="translate(238.247 459.358) rotate(-15.009)"/>
          <rect id="Rectangle_3" data-name="Rectangle 3" width="40.55" height="64.839" transform="translate(151.949 156.796) rotate(-15.009)"/>
        </g>
        <path id="Path_2" data-name="Path 2" d="M18.335,3.194c4.149-1.5,22.2-5.553,62.226-5.553S154.2,1.6,158.1,3.711s7.707,8.713,7.707,16.953-4.887,13.852-14.579,14.958-30.647-5.831-70.67-5.831-60.981,8.786-69.485,6.363S0,27.867,0,19.627,14.186,4.694,18.335,3.194Z" transform="translate(255.595 8.041)" fill="#fff"/>
        <path id="Path_9" data-name="Path 9" d="M18.335,5.553C22.483,4.055,40.538,0,80.561,0S154.2,3.957,158.1,6.07s7.707,8.713,7.707,16.953S160.923,36.875,151.23,37.98s-30.647-5.831-70.67-5.831-60.981,8.786-69.485,6.363S0,30.226,0,21.986,14.186,7.053,18.335,5.553Z" transform="translate(433.764 652.701) rotate(178)" fill="#fff"/>
        <path id="Path_5" data-name="Path 5" d="M18.335,5.553C22.483,4.055,40.538,0,80.561,0S154.2,3.957,158.1,6.07s7.707,8.713,7.707,16.953S160.923,36.875,151.23,37.98s-30.647-5.831-70.67-5.831-60.981,8.786-69.485,6.363S0,30.226,0,21.986,14.186,7.053,18.335,5.553Z" transform="matrix(0.035, 0.999, -0.999, 0.035, 669.987, 235.394)" fill="#fff"/>
        <path id="Path_7" data-name="Path 7" d="M18.335,5.553C22.483,4.055,40.538,0,80.561,0S154.2,3.957,158.1,6.07s7.707,8.713,7.707,16.953S160.923,36.875,151.23,37.98s-30.647-5.831-70.67-5.831-60.981,8.786-69.485,6.363S0,30.226,0,21.986,14.186,7.053,18.335,5.553Z" transform="translate(11.607 437.591) rotate(-94.012)" fill="#fff"/>
        <path id="Path_3" data-name="Path 3" d="M18.335,5.553C22.483,4.055,40.538,0,80.561,0S154.2,3.957,158.1,6.07s7.707,8.713,7.707,16.953S160.923,36.875,151.23,37.98s-30.647-5.831-70.67-5.831-60.981,8.786-69.485,6.363S0,30.226,0,21.986,14.186,7.053,18.335,5.553Z" transform="translate(509.493 44.617) rotate(45)" fill="#fff"/>
        <path id="Path_8" data-name="Path 8" d="M18.335,5.553C22.483,4.055,40.538,0,80.561,0S154.2,3.957,158.1,6.07s7.707,8.713,7.707,16.953S160.923,36.875,151.23,37.98s-30.647-5.831-70.67-5.831-60.981,8.786-69.485,6.363S0,30.226,0,21.986,14.186,7.053,18.335,5.553Z" transform="matrix(-0.731, -0.682, 0.682, -0.731, 178.661, 622.65)" fill="#fff"/>
        <path id="Path_4" data-name="Path 4" d="M18.335,5.553C22.483,4.055,40.538,0,80.561,0S154.2,3.957,158.1,6.07s7.707,8.713,7.707,16.953S160.923,36.875,151.23,37.98s-30.647-5.831-70.67-5.831-60.981,8.786-69.485,6.363S0,30.226,0,21.986,14.186,7.053,18.335,5.553Z" transform="translate(639.935 490.497) rotate(133)" fill="#fff"/>
        <path id="Path_6" data-name="Path 6" d="M18.335,5.553C22.483,4.055,40.538,0,80.561,0S154.2,3.957,158.1,6.07s7.707,8.713,7.707,16.953S160.923,36.875,151.23,37.98s-30.647-5.831-70.67-5.831-60.981,8.786-69.485,6.363S0,30.226,0,21.986,14.186,7.053,18.335,5.553Z" transform="matrix(0.656, -0.755, 0.755, 0.656, 32.737, 181.595)" fill="#fff"/>
      </g>
      <path id="Path_13" data-name="Path 13" d="M8.062,170.548S-.632,121.557.037,78.916A352.3,352.3,0,0,1,10.738,0L131.794,86.277Z" transform="translate(131.794 533.919) rotate(180)" fill="#fff"/>
      <path id="Path_14" data-name="Path 14" d="M576.23,472.5s-8.695-48.99-8.025-91.627a352.253,352.253,0,0,1,10.7-78.916l121.056,86.277Z" transform="translate(809.268 61.415)" fill="#fff"/>
    </g>
  </g>
</svg>
