<svg id="Group_33" data-name="Group 33" xmlns="http://www.w3.org/2000/svg" width="24" height="24" viewBox="0 0 24 24">
  <path id="Path_58" data-name="Path 58" d="M0,0H24V24H0Z" fill="none" stroke="#013220" stroke-width="0"/>
  <path id="Path_59" data-name="Path 59" d="M21,8a2,2,0,0,1,2,2v4a2,2,0,0,1-2,2H19.938A8,8,0,0,1,12,23V21a6,6,0,0,0,6-6V9A6,6,0,0,0,6,9v7H3a2,2,0,0,1-2-2V10A2,2,0,0,1,3,8H4.062A8,8,0,0,1,19.938,8ZM7.76,15.785l1.06-1.7a6.006,6.006,0,0,0,6.36,0l1.06,1.7a8.006,8.006,0,0,1-8.48,0Z" fill="#013220" stroke="#013220" stroke-width="0"/>
</svg>
