<svg xmlns="http://www.w3.org/2000/svg" width="22.38" height="13.467" viewBox="0 0 22.38 13.467">
  <path id="Path_57" data-name="Path 57" d="M36.19,117a21.029,21.029,0,0,0-8.048,1.439,7.443,7.443,0,0,0-2.353,1.507,2.133,2.133,0,0,0,0,3.313,7.443,7.443,0,0,0,2.353,1.507A21.029,21.029,0,0,0,36.19,126.2a21.015,21.015,0,0,0,8.046-1.439,7.423,7.423,0,0,0,2.354-1.507,2.133,2.133,0,0,0,0-3.313,7.423,7.423,0,0,0-2.354-1.507A21.015,21.015,0,0,0,36.19,117ZM25,123.69v2.432a2.445,2.445,0,0,0,.79,1.4,7.443,7.443,0,0,0,2.353,1.507,21.029,21.029,0,0,0,8.048,1.439,21.015,21.015,0,0,0,8.046-1.439,7.423,7.423,0,0,0,2.354-1.507,2.445,2.445,0,0,0,.79-1.4V123.69c-.053.063-.107.121-.165.179a8.2,8.2,0,0,1-2.63,1.7,21.713,21.713,0,0,1-8.4,1.511,21.7,21.7,0,0,1-8.394-1.511,8.2,8.2,0,0,1-2.63-1.7C25.108,123.811,25.053,123.748,25,123.69Z" transform="translate(-25 -117)" fill="#013220" stroke="#013220" stroke-width="0"/>
</svg>
