<svg xmlns="http://www.w3.org/2000/svg" xmlns:xlink="http://www.w3.org/1999/xlink" width="3348.5" height="3297" viewBox="0 0 3348.5 3297">
  <defs>
    <filter id="Ellipse_25" x="0" y="0" width="3348.5" height="3297" filterUnits="userSpaceOnUse">
      <feOffset dx="200" dy="100" input="SourceAlpha"/>
      <feGaussianBlur stdDeviation="49.5" result="blur"/>
      <feFlood flood-color="#64646f" flood-opacity="0.2"/>
      <feComposite operator="in" in2="blur"/>
      <feComposite in="SourceGraphic"/>
    </filter>
  </defs>
  <g transform="matrix(1, 0, 0, 1, 0, 0)" filter="url(#Ellipse_25)">
    <circle id="Ellipse_25-2" data-name="Ellipse 25" cx="1500" cy="1500" r="1500" transform="translate(0 48.5)" fill="#fff"/>
  </g>
  <g id="Group_24" data-name="Group 24" transform="translate(-5059.75 5395.5)">
    <path id="Path_34" data-name="Path 34" d="M69.644,6.712C33.931,6.712,5.736,38.04,5.736,76.259s28.821,69.547,63.908,69.547c35.713,0,63.908-31.328,63.908-69.547C134.179,38.04,105.358,6.712,69.644,6.712Zm228.692,0c-35.714,0-63.908,31.328-63.908,69.547s28.821,69.547,63.908,69.547c35.713,0,63.908-31.328,63.908-69.547S334.049,6.712,298.336,6.712Z" transform="translate(6375.76 -3992.807)" fill="#01d394" stroke="#000" stroke-width="0"/>
    <path id="Path_35" data-name="Path 35" d="M1005.25,0h-871C60.8,0,1,59.8,1,133.9v878.8c0,74.1,59.8,133.9,133.25,133.9h737.1L836.9,1026.35l83.2,77.35,78.65,72.8L1138.5,1300V133.9C1138.5,59.8,1078.7,0,1005.25,0ZM754.35,848.9s-23.4-27.95-42.9-52.65C796.6,772.2,829.1,718.9,829.1,718.9a371.96,371.96,0,0,1-74.75,38.35c-32.5,13.65-63.7,22.75-94.25,27.95a455.321,455.321,0,0,1-168.35-.65A545.673,545.673,0,0,1,396.2,756.6a380.922,380.922,0,0,1-47.45-22.1c-1.95-1.3-3.9-1.95-5.85-3.25a8.973,8.973,0,0,1-2.6-1.95c-11.7-6.5-18.2-11.05-18.2-11.05s31.2,52,113.75,76.7c-19.5,24.7-43.55,53.95-43.55,53.95-143.65-4.55-198.25-98.8-198.25-98.8,0-209.3,93.6-378.95,93.6-378.95,93.6-70.2,182.65-68.25,182.65-68.25l6.5,7.8c-117,33.8-170.95,85.15-170.95,85.15s14.3-7.8,38.35-18.85c69.55-30.55,124.8-39,147.55-40.95a64.041,64.041,0,0,1,11.05-1.3,529.831,529.831,0,0,1,326.95,61.1S778.4,347.1,667.9,313.3l9.1-10.4s89.05-1.95,182.65,68.25c0,0,93.6,169.65,93.6,378.95C953.25,750.1,898,844.35,754.35,848.9Z" transform="translate(5990 -4497)" fill="#01d394" stroke="#000" stroke-width="0"/>
  </g>
</svg>
