<svg xmlns="http://www.w3.org/2000/svg" xmlns:xlink="http://www.w3.org/1999/xlink" width="3348.5" height="3297" viewBox="0 0 3348.5 3297">
  <defs>
    <filter id="Ellipse_24" x="0" y="0" width="3348.5" height="3297" filterUnits="userSpaceOnUse">
      <feOffset dx="200" dy="100" input="SourceAlpha"/>
      <feGaussianBlur stdDeviation="49.5" result="blur"/>
      <feFlood flood-color="#64646f" flood-opacity="0.2"/>
      <feComposite operator="in" in2="blur"/>
      <feComposite in="SourceGraphic"/>
    </filter>
  </defs>
  <g transform="matrix(1, 0, 0, 1, 0, 0)" filter="url(#Ellipse_24)">
    <circle id="Ellipse_24-2" data-name="Ellipse 24" cx="1500" cy="1500" r="1500" transform="translate(0 48.5)" fill="#fff"/>
  </g>
  <path id="Path_30" data-name="Path 30" d="M762.208,545.511c-119.356,0-216.759,97.4-216.759,216.759s97.4,216.759,216.759,216.759,216.759-97.4,216.759-216.759S881.563,545.511,762.208,545.511ZM1412.322,762.27c0-89.761.813-178.708-4.228-268.306-5.041-104.07-28.782-196.433-104.883-272.534-76.264-76.264-168.464-99.842-272.534-104.883-89.761-5.041-178.708-4.228-268.306-4.228-89.761,0-178.708-.813-268.306,4.228-104.07,5.041-196.433,28.782-272.534,104.883-76.264,76.264-99.842,168.464-104.883,272.534-5.041,89.761-4.228,178.708-4.228,268.306s-.813,178.708,4.228,268.306c5.041,104.07,28.782,196.433,104.883,272.534,76.264,76.264,168.464,99.843,272.534,104.883,89.761,5.041,178.708,4.228,268.306,4.228,89.761,0,178.708.813,268.306-4.228,104.07-5.041,196.433-28.782,272.534-104.883,76.264-76.264,99.843-168.464,104.883-272.534,5.2-89.6,4.228-178.546,4.228-268.306ZM762.208,1095.783A333.513,333.513,0,1,1,1095.721,762.27,333.043,333.043,0,0,1,762.208,1095.783ZM1109.38,492.988a77.793,77.793,0,1,1,55.105-22.785A77.8,77.8,0,0,1,1109.38,492.988Z" transform="translate(692.618 791.304)" fill="#01d394" stroke="#000" stroke-width="0"/>
</svg>
