<svg xmlns="http://www.w3.org/2000/svg" xmlns:xlink="http://www.w3.org/1999/xlink" width="3348.5" height="3297" viewBox="0 0 3348.5 3297">
  <defs>
    <filter id="Ellipse_27" x="0" y="0" width="3348.5" height="3297" filterUnits="userSpaceOnUse">
      <feOffset dx="200" dy="100" input="SourceAlpha"/>
      <feGaussianBlur stdDeviation="49.5" result="blur"/>
      <feFlood flood-color="#64646f" flood-opacity="0.2"/>
      <feComposite operator="in" in2="blur"/>
      <feComposite in="SourceGraphic"/>
    </filter>
  </defs>
  <g transform="matrix(1, 0, 0, 1, 0, 0)" filter="url(#Ellipse_27)">
    <circle id="Ellipse_27-2" data-name="Ellipse 27" cx="1500" cy="1500" r="1500" transform="translate(0 48.5)" fill="#fff"/>
  </g>
  <path id="Path_36" data-name="Path 36" d="M1241.719,529.735c-43.517,0-81.812,17.987-109.953,46.128C1028.2,504.205,888.651,458.077,734.02,453.145L814.382,91.083l255.88,57.443A113.909,113.909,0,0,0,1183.987,262.25c63.825,0,115.175-52.511,115.175-115.175S1248.1,31.9,1183.987,31.9c-44.677,0-83.263,26.981-102.41,63.825L799.006,33.06c-14.216-3.771-28.141,6.383-31.912,20.6L678.9,452.855c-153.47,6.383-291.564,52.511-395.425,124.169a154.184,154.184,0,0,0-111.4-47.289c-161.3,0-214.1,216.425-66.436,290.4-5.222,22.919-7.543,47.289-7.543,71.658,0,243.115,273.867,440.1,610.109,440.1,337.692,0,611.56-196.987,611.56-440.1,0-24.37-2.611-49.9-8.994-72.819,144.767-74.269,91.386-289.243-69.047-289.243ZM339.756,835.515A114.717,114.717,0,0,1,454.931,720.34c62.665,0,113.725,51.06,113.725,115.175A113.909,113.909,0,0,1,454.931,949.24C391.106,949.53,339.756,898.18,339.756,835.515Zm621.714,271.256c-105.6,105.6-403.548,105.6-509.15,0-11.6-10.154-11.6-28.141,0-39.746,10.154-10.154,28.141-10.154,38.3,0,80.652,82.682,348.137,84.133,432.27,0,10.154-10.154,28.141-10.154,38.3,0,11.895,11.6,11.895,29.592.29,39.746ZM959.149,949.53A113.909,113.909,0,0,1,845.424,835.805c0-63.825,51.06-115.175,113.725-115.175a114.717,114.717,0,0,1,115.175,115.175C1074.034,898.18,1022.974,949.53,959.149,949.53Z" transform="translate(793.02 866.6)" fill="#013220" stroke="#013220" stroke-width="0"/>
</svg>
