<svg xmlns="http://www.w3.org/2000/svg" xmlns:xlink="http://www.w3.org/1999/xlink" width="3348.5" height="3297" viewBox="0 0 3348.5 3297">
  <defs>
    <filter id="Ellipse_22" x="0" y="0" width="3348.5" height="3297" filterUnits="userSpaceOnUse">
      <feOffset dx="200" dy="100" input="SourceAlpha"/>
      <feGaussianBlur stdDeviation="49.5" result="blur"/>
      <feFlood flood-color="#64646f" flood-opacity="0.2"/>
      <feComposite operator="in" in2="blur"/>
      <feComposite in="SourceGraphic"/>
    </filter>
  </defs>
  <g transform="matrix(1, 0, 0, 1, 0, 0)" filter="url(#Ellipse_22)">
    <circle id="Ellipse_22-2" data-name="Ellipse 22" cx="1500" cy="1500" r="1500" transform="translate(0 48.5)" fill="#fff"/>
  </g>
  <path id="Path_29" data-name="Path 29" d="M577.975,1302c694.352,0,1074.187-500.269,1074.187-933.342,0-14,0-28.2-.69-42.2,73.95-46.549,137.773-104.178,188.48-170.189a857.062,857.062,0,0,1-217.229,51.8c78.949-41.034,138.08-105.6,166.4-181.689-74.175,38.21-155.359,65.033-240,79.3-116.99-108.338-303.043-134.91-453.74-64.8S866.869,260.31,905.6,405.055C602.046,391.82,319.208,267.2,127.417,62.176,27.5,212.231,78.725,403.961,244.484,500.349,184.632,498.58,126.1,484.606,73.6,459.551v4.5C73.811,620.2,200.3,754.677,376.27,785.831a420.446,420.446,0,0,1-99.472,11.5,425.6,425.6,0,0,1-70.608-5.7c49.461,133.677,191.227,225.195,352.7,227.686C425.093,1110.691,259.824,1160.248,89.7,1160.008a834.6,834.6,0,0,1-89.7-4.5C172.67,1251.229,373.2,1302.054,577.975,1302Z" transform="translate(580.023 896.501)" fill="#013220" stroke="#000" stroke-width="0"/>
</svg>
